<svg width="7" height="12" viewBox="0 0 7 12" fill="none" xmlns="http://www.w3.org/2000/svg">
<path d="M0.290838 10.9772C0.104587 10.7899 4.53478e-05 10.5364 4.53593e-05 10.2722C4.53709e-05 10.0081 0.104587 9.75461 0.290838 9.56724L3.83084 5.97724L0.290838 2.43724C0.104587 2.24988 4.57211e-05 1.99643 4.57326e-05 1.73224C4.57442e-05 1.46806 0.104587 1.21461 0.290838 1.02724C0.383801 0.933515 0.494402 0.859121 0.616261 0.808352C0.738121 0.757583 0.868826 0.731445 1.00084 0.731445C1.13285 0.731445 1.26356 0.757583 1.38542 0.808352C1.50727 0.859121 1.61788 0.933515 1.71084 1.02724L5.95084 5.26724C6.04457 5.36021 6.11896 5.47081 6.16973 5.59267C6.2205 5.71453 6.24664 5.84523 6.24664 5.97724C6.24664 6.10926 6.2205 6.23996 6.16973 6.36182C6.11896 6.48368 6.04457 6.59428 5.95084 6.68724L1.71084 10.9772C1.61787 11.071 1.50727 11.1454 1.38541 11.1961C1.26356 11.2469 1.13285 11.273 1.00084 11.273C0.868826 11.273 0.73812 11.2469 0.616261 11.1961C0.494402 11.1454 0.383801 11.071 0.290838 10.9772Z" fill="#212329"/>
</svg>
